<?xml version="1.0" encoding="utf-8"?>
<!-- Generator: Adobe Illustrator 24.3.0, SVG Export Plug-In . SVG Version: 6.00 Build 0)  -->
<svg version="1.1" id="Capa_1" xmlns="http://www.w3.org/2000/svg" xmlns:xlink="http://www.w3.org/1999/xlink" x="0px" y="0px"
	 viewBox="0 0 52.01 43" style="enable-background:new 0 0 52.01 43;" xml:space="preserve">
<style type="text/css">
	.st0{fill:url(#SVGID_1_);}
</style>
<linearGradient id="SVGID_1_" gradientUnits="userSpaceOnUse" x1="5.9957" y1="0.3565" x2="39.2357" y2="33.5965">
	<stop  offset="0" style="stop-color:#FBD49D"/>
	<stop  offset="1" style="stop-color:#D7A96F"/>
</linearGradient>
<path class="st0" d="M0.76,38.13c4.87,3.09,10.53,4.72,16.37,4.72c8.56,0,16.41-3.29,22.09-9.26c5.44-5.72,8.43-13.39,8.29-21.19
	c2.06-1.77,4.49-5.13,4.49-8.42c0-1.26-1.37-2.06-2.47-1.42C47.59,3.7,45.83,4,44.01,3.49c-3.71-3.62-9.24-4.38-13.89-1.87
	c-4.07,2.19-6.33,6.2-6.13,10.58c-6.87-0.84-13.22-4.29-17.65-9.64C5.61,1.68,4.23,1.78,3.66,2.77c-2.13,3.65-2.11,7.89-0.26,11.3
	c-0.88,0.16-1.43,0.9-1.43,1.7c0,3.44,1.55,6.59,4.04,8.75c-0.46,0.45-0.62,1.11-0.42,1.7c1.09,3.29,3.57,5.86,6.67,7.15
	c-3.37,1.61-7.1,2.15-10.41,1.74C0.13,34.88-0.72,37.19,0.76,38.13L0.76,38.13z M17.59,33.94c1.23-0.94,0.58-2.91-0.97-2.94
	c-2.72-0.06-5.19-1.39-6.73-3.5c0.74-0.05,1.51-0.16,2.24-0.36c1.67-0.45,1.59-2.86-0.11-3.19c-3.07-0.62-5.48-2.86-6.39-5.74
	c0.83,0.2,1.67,0.32,2.5,0.33c1.66,0.01,2.29-2.12,0.94-3.01c-3.05-2.01-4.36-5.57-3.49-8.91c5.33,5.4,12.57,8.66,20.23,9.03
	c1.1,0.07,1.92-0.96,1.68-2.01c-1.04-4.51,1.48-7.67,4.18-9.12c2.68-1.45,6.97-1.9,10.27,1.56c0.98,1.03,4.28,1.07,5.96,0.68
	c-0.75,1.42-1.91,2.77-3,3.52c-0.46,0.32-0.73,0.86-0.7,1.43c0.35,7.19-2.33,14.34-7.35,19.62c-5.06,5.31-12.06,8.24-19.72,8.24
	c-3.04,0-6.03-0.49-8.85-1.45C11.66,37.46,14.87,36.03,17.59,33.94L17.59,33.94z"/>
</svg>
